<svg width="0" height="0" class="hidden">
  <symbol fill="none" xmlns="http://www.w3.org/2000/svg" viewBox="0 0 9 9" id="alert">
    <path d="M3.33329 5.1721C3.33329 5.13139 3.36661 5.09807 3.40732 5.09807H3.73306C3.77377 5.09807 3.80709 5.13139 3.80709 5.1721V6.43803H6.43517V5.00924C6.43517 3.99946 5.6164 3.18068 4.60662 3.18068C3.59684 3.18068 2.77806 3.99946 2.77806 5.00924V6.43803H3.33329V5.1721Z" fill="#492419"></path>
    <path d="M2.42205 3.13997L2.71522 2.84681C2.73817 2.82386 2.73817 2.78611 2.71522 2.76316L2.21255 2.26049C2.20142 2.24947 2.18639 2.24328 2.17072 2.24328C2.15506 2.24328 2.14002 2.24947 2.12889 2.26049L1.83573 2.55365C1.82471 2.56478 1.81853 2.57981 1.81853 2.59548C1.81853 2.61114 1.82471 2.62617 1.83573 2.63731L2.3384 3.13997C2.36135 3.16292 2.39836 3.16292 2.42205 3.13997ZM7.37915 2.55365L7.08598 2.26049C7.07485 2.24947 7.05982 2.24328 7.04416 2.24328C7.02849 2.24328 7.01346 2.24947 7.00233 2.26049L6.49966 2.76316C6.48864 2.77429 6.48246 2.78932 6.48246 2.80498C6.48246 2.82065 6.48864 2.83568 6.49966 2.84681L6.79282 3.13997C6.81577 3.16292 6.85353 3.16292 6.87648 3.13997L7.37915 2.63731C7.40209 2.61362 7.40209 2.5766 7.37915 2.55365ZM4.39941 2.17387H4.81398C4.84656 2.17387 4.87321 2.14722 4.87321 2.11465V1.40395C4.87321 1.37138 4.84656 1.34473 4.81398 1.34473H4.39941C4.36684 1.34473 4.34019 1.37138 4.34019 1.40395V2.11465C4.34019 2.14722 4.36684 2.17387 4.39941 2.17387ZM6.97568 7.44485H2.23772C2.10668 7.44485 2.00082 7.55072 2.00082 7.68175V7.85943C2.00082 7.892 2.02747 7.91865 2.06004 7.91865H7.15335C7.18593 7.91865 7.21258 7.892 7.21258 7.85943V7.68175C7.21258 7.55072 7.10671 7.44485 6.97568 7.44485ZM2.24512 6.73416C2.24512 6.86519 2.35099 6.97106 2.48202 6.97106H6.73138C6.86241 6.97106 6.96828 6.86519 6.96828 6.73416V5.00925C6.96828 3.70483 5.91112 2.64767 4.6067 2.64767C3.30228 2.64767 2.24512 3.70483 2.24512 5.00925V6.73416ZM2.77814 5.00925C2.77814 3.99947 3.59692 3.18069 4.6067 3.18069C5.61648 3.18069 6.43526 3.99947 6.43526 5.00925V6.43804H3.80717V5.17211C3.80717 5.1314 3.77385 5.09808 3.73314 5.09808H3.4074C3.36669 5.09808 3.33337 5.1314 3.33337 5.17211V6.43804H2.77814V5.00925Z" fill="currentColor"></path>
  </symbol>
  <symbol fill="none" xmlns="http://www.w3.org/2000/svg" viewBox="0 0 11 13" id="bell">
    <path d="M5.28171 12.4278C6.09882 12.4278 6.76163 11.765 6.76163 10.9472H3.80179C3.80179 11.765 4.46459 12.4278 5.28171 12.4278ZM10.2647 8.96429C9.8177 8.48402 8.98139 7.76153 8.98139 5.39486C8.98139 3.59731 7.72102 2.15833 6.02155 1.8053V1.32318C6.02155 0.914389 5.69026 0.58287 5.28171 0.58287C4.87315 0.58287 4.54186 0.914389 4.54186 1.32318V1.8053C2.8424 2.15833 1.58203 3.59731 1.58203 5.39486C1.58203 7.76153 0.745713 8.48402 0.298753 8.96429C0.159946 9.11351 0.0984076 9.29188 0.0995643 9.46655C0.102109 9.84595 0.399851 10.2069 0.842184 10.2069H9.72123C10.1636 10.2069 10.4615 9.84595 10.4639 9.46655C10.465 9.29188 10.4035 9.11328 10.2647 8.96429Z" fill="currentColor"></path>
  </symbol>
  <symbol fill="none" xmlns="http://www.w3.org/2000/svg" viewBox="0 0 13 12" id="bills">
    <path d="M11.5281 2.6345C10.8677 2.35919 10.2067 2.25445 9.54605 2.25445C7.44886 2.25428 5.35184 3.30932 3.25465 3.30932C2.7287 3.30932 2.20308 3.24299 1.67712 3.07716C1.61804 3.05855 1.55879 3.04975 1.5009 3.04975C1.20786 3.04975 0.951782 3.27514 0.951782 3.58802V8.95647C0.951782 9.17018 1.07489 9.37273 1.27257 9.45497C1.93304 9.73044 2.59401 9.83519 3.25465 9.83519C5.35184 9.83519 7.44903 8.78015 9.54622 8.78015C10.0722 8.78015 10.5978 8.84648 11.1237 9.01231C11.1828 9.03092 11.2421 9.03972 11.3 9.03972C11.593 9.03972 11.8491 8.81433 11.8491 8.50145V3.13317C11.8489 2.91929 11.7258 2.71691 11.5281 2.6345ZM1.76907 3.9503C2.11165 4.03559 2.46921 4.0784 2.83699 4.10141C2.73687 4.59873 2.2969 4.97353 1.76907 4.97353V3.9503ZM1.76907 8.77287V7.96437C2.35428 7.96437 2.82779 8.42581 2.85384 9.00334C2.47023 8.97271 2.11165 8.89656 1.76907 8.77287ZM6.40035 7.66926C5.64794 7.66926 5.03821 6.94182 5.03821 6.04482C5.03821 5.14765 5.64811 4.42038 6.40035 4.42038C7.15259 4.42038 7.76249 5.14765 7.76249 6.04482C7.76249 6.94216 7.15242 7.66926 6.40035 7.66926ZM11.0316 8.13934C10.7333 8.06505 10.4236 8.02343 10.1067 7.99652C10.2067 7.55521 10.575 7.22017 11.0316 7.16264V8.13934ZM11.0316 4.14405C10.5057 4.07789 10.0975 3.64149 10.0814 3.10255C10.4141 3.13927 10.7299 3.20797 11.0316 3.31677V4.14405Z" fill="currentColor"></path>
  </symbol>
  <symbol fill="none" xmlns="http://www.w3.org/2000/svg" viewBox="0 0 13 12" id="budget">
    <path d="M9.83536 1.54747H8.05863C8.05863 0.763487 7.42123 0.126083 6.63724 0.126083C5.85326 0.126083 5.21585 0.763487 5.21585 1.54747H3.43912C2.85057 1.54747 2.37308 2.02497 2.37308 2.61351V10.4311C2.37308 11.0197 2.85057 11.4972 3.43912 11.4972H9.83536C10.4239 11.4972 10.9014 11.0197 10.9014 10.4311V2.61351C10.9014 2.02497 10.4239 1.54747 9.83536 1.54747ZM4.50516 9.54278C4.20978 9.54278 3.97214 9.30514 3.97214 9.00976C3.97214 8.71438 4.20978 8.47674 4.50516 8.47674C4.80054 8.47674 5.03818 8.71438 5.03818 9.00976C5.03818 9.30514 4.80054 9.54278 4.50516 9.54278ZM4.50516 7.4107C4.20978 7.4107 3.97214 7.17306 3.97214 6.87768C3.97214 6.58229 4.20978 6.34466 4.50516 6.34466C4.80054 6.34466 5.03818 6.58229 5.03818 6.87768C5.03818 7.17306 4.80054 7.4107 4.50516 7.4107ZM4.50516 5.27861C4.20978 5.27861 3.97214 5.04098 3.97214 4.74559C3.97214 4.45021 4.20978 4.21257 4.50516 4.21257C4.80054 4.21257 5.03818 4.45021 5.03818 4.74559C5.03818 5.04098 4.80054 5.27861 4.50516 5.27861ZM6.63724 1.01445C6.93262 1.01445 7.17026 1.25209 7.17026 1.54747C7.17026 1.84285 6.93262 2.08049 6.63724 2.08049C6.34186 2.08049 6.10422 1.84285 6.10422 1.54747C6.10422 1.25209 6.34186 1.01445 6.63724 1.01445ZM9.48002 9.18743C9.48002 9.28515 9.40006 9.3651 9.30234 9.3651H6.10422C6.0065 9.3651 5.92655 9.28515 5.92655 9.18743V8.83208C5.92655 8.73436 6.0065 8.65441 6.10422 8.65441H9.30234C9.40006 8.65441 9.48002 8.73436 9.48002 8.83208V9.18743ZM9.48002 7.05535C9.48002 7.15307 9.40006 7.23302 9.30234 7.23302H6.10422C6.0065 7.23302 5.92655 7.15307 5.92655 7.05535V6.7C5.92655 6.60228 6.0065 6.52233 6.10422 6.52233H9.30234C9.40006 6.52233 9.48002 6.60228 9.48002 6.7V7.05535ZM9.48002 4.92327C9.48002 5.02099 9.40006 5.10094 9.30234 5.10094H6.10422C6.0065 5.10094 5.92655 5.02099 5.92655 4.92327V4.56792C5.92655 4.4702 6.0065 4.39025 6.10422 4.39025H9.30234C9.40006 4.39025 9.48002 4.4702 9.48002 4.56792V4.92327Z" fill="currentColor"></path>
  </symbol>
  <symbol fill="none" xmlns="http://www.w3.org/2000/svg" viewBox="0 0 13 13" id="card">
    <path d="M0.951782 10.4413C0.951782 10.9458 1.35854 11.3551 1.85989 11.3551H10.941C11.4423 11.3551 11.8491 10.9458 11.8491 10.4413V7.0909H0.951782V10.4413ZM4.58422 9.14684C4.58422 9.0212 4.68638 8.9184 4.81124 8.9184H7.38422C7.50909 8.9184 7.61125 9.0212 7.61125 9.14684V9.90829C7.61125 10.0339 7.50909 10.1367 7.38422 10.1367H4.81124C4.68638 10.1367 4.58422 10.0339 4.58422 9.90829V9.14684ZM2.16259 9.14684C2.16259 9.0212 2.26476 8.9184 2.38962 8.9184H3.75178C3.87665 8.9184 3.97881 9.0212 3.97881 9.14684V9.90829C3.97881 10.0339 3.87665 10.1367 3.75178 10.1367H2.38962C2.26476 10.1367 2.16259 10.0339 2.16259 9.90829V9.14684ZM11.8491 3.74049V4.65424H0.951782V3.74049C0.951782 3.23602 1.35854 2.82674 1.85989 2.82674H10.941C11.4423 2.82674 11.8491 3.23602 11.8491 3.74049Z" fill="currentColor"></path>
  </symbol>
  <symbol fill="none" xmlns="http://www.w3.org/2000/svg" viewBox="0 0 12 12" id="check">
    <g clip-path="url(#clip0_2_45)">
      <path d="M4.56435 5.37395L5.98573 6.79534L10.7237 2.05738" stroke="#BDBABB" stroke-width="0.947592" stroke-linecap="round" stroke-linejoin="round"></path>
      <path d="M10.2498 5.84773V9.1643C10.2498 9.41562 10.15 9.65665 9.97228 9.83435C9.79457 10.0121 9.55355 10.1119 9.30223 10.1119H2.66909C2.41777 10.1119 2.17675 10.0121 1.99904 9.83435C1.82133 9.65665 1.7215 9.41562 1.7215 9.1643V2.53116C1.7215 2.27984 1.82133 2.03882 1.99904 1.86111C2.17675 1.6834 2.41777 1.58357 2.66909 1.58357H7.88084" stroke="#BDBABB" stroke-width="0.947592" stroke-linecap="round" stroke-linejoin="round"></path>
    </g>
    <defs>
      <clipPath id="clip0_2_45">
        <rect width="11.3711" height="11.3711" fill="white" transform="translate(0.300171 0.16217)"></rect>
      </clipPath>
    </defs>
  </symbol>
  <symbol fill="none" xmlns="http://www.w3.org/2000/svg" viewBox="0 0 12 13" id="empty_check">
    <path d="M9.30225 2.3931H2.6691C2.14576 2.3931 1.72151 2.81735 1.72151 3.34069V9.97383C1.72151 10.4972 2.14576 10.9214 2.6691 10.9214H9.30225C9.82559 10.9214 10.2498 10.4972 10.2498 9.97383V3.34069C10.2498 2.81735 9.82559 2.3931 9.30225 2.3931Z" stroke="#8A8587" stroke-width="0.947592" stroke-linecap="round" stroke-linejoin="round"></path>
  </symbol>
  <symbol fill="none" xmlns="http://www.w3.org/2000/svg" viewBox="0 0 13 12" id="gears">
    <path d="M12.1777 7.55002L11.1575 6.98605C11.2605 6.45418 11.2605 5.90855 11.1575 5.37668L12.1777 4.81271C12.2951 4.74852 12.3477 4.61555 12.3094 4.49176C12.0436 3.67561 11.591 2.93741 10.9995 2.323C10.9085 2.22901 10.76 2.20608 10.645 2.27027L9.62483 2.83424C9.19616 2.48119 8.70282 2.20837 8.16878 2.02955V0.903911C8.16878 0.775528 8.07538 0.663193 7.94367 0.635683C7.06477 0.447693 6.16431 0.456863 5.32852 0.635683C5.19681 0.663193 5.10341 0.775528 5.10341 0.903911V2.03185C4.57176 2.21296 4.07843 2.48577 3.64736 2.83653L2.62956 2.27257C2.51221 2.20837 2.36613 2.22901 2.27513 2.32529C1.68361 2.93741 1.23099 3.67561 0.965161 4.49405C0.924449 4.61785 0.97953 4.75081 1.09688 4.81501L2.11707 5.37897C2.01409 5.91085 2.01409 6.45647 2.11707 6.98835L1.09688 7.55231C0.97953 7.6165 0.926844 7.74947 0.965161 7.87327C1.23099 8.68942 1.68361 9.42762 2.27513 10.042C2.36613 10.136 2.51461 10.1589 2.62956 10.0948L3.64975 9.53079C4.07843 9.88384 4.57176 10.1567 5.1058 10.3355V11.4634C5.1058 11.5918 5.1992 11.7041 5.33092 11.7316C6.20982 11.9196 7.11027 11.9105 7.94606 11.7316C8.07778 11.7041 8.17117 11.5918 8.17117 11.4634V10.3355C8.70282 10.1544 9.19616 9.88155 9.62722 9.53079L10.6474 10.0948C10.7648 10.1589 10.9108 10.1383 11.0018 10.042C11.5934 9.42991 12.046 8.69171 12.3118 7.87327C12.3477 7.74718 12.2951 7.61421 12.1777 7.55002ZM6.63609 8.01541C5.57998 8.01541 4.72024 7.19238 4.72024 6.18137C4.72024 5.17035 5.57998 4.34732 6.63609 4.34732C7.69221 4.34732 8.55195 5.17035 8.55195 6.18137C8.55195 7.19238 7.69221 8.01541 6.63609 8.01541Z" fill="currentColor"></path>
  </symbol>
  <symbol fill="none" xmlns="http://www.w3.org/2000/svg" viewBox="0 0 13 10" id="home">
    <path d="M6.71764 2.87847L2.92624 6.00113V9.37137C2.92624 9.45863 2.96091 9.54232 3.02261 9.60403C3.08431 9.66573 3.168 9.7004 3.25526 9.7004L5.55967 9.69443C5.64665 9.694 5.72992 9.65914 5.79127 9.59748C5.85261 9.53583 5.88705 9.45239 5.88705 9.36541V7.39722C5.88705 7.30996 5.92172 7.22627 5.98342 7.16456C6.04513 7.10286 6.12882 7.0682 6.21608 7.0682H7.53218C7.61944 7.0682 7.70313 7.10286 7.76483 7.16456C7.82654 7.22627 7.8612 7.30996 7.8612 7.39722V9.36397C7.86107 9.40726 7.86948 9.45016 7.88595 9.4902C7.90243 9.53023 7.92664 9.56663 7.95721 9.59729C7.98777 9.62795 8.02409 9.65228 8.06408 9.66888C8.10406 9.68548 8.14693 9.69402 8.19023 9.69402L10.4938 9.7004C10.5811 9.7004 10.6648 9.66573 10.7265 9.60403C10.7882 9.54232 10.8228 9.45863 10.8228 9.37137V5.99886L7.03227 2.87847C6.9877 2.84255 6.93219 2.82297 6.87495 2.82297C6.81771 2.82297 6.7622 2.84255 6.71764 2.87847ZM12.7065 5.00089L10.9874 3.58382V0.735492C10.9874 0.670045 10.9614 0.607279 10.9151 0.561001C10.8688 0.514723 10.806 0.488724 10.7406 0.488724H9.58899C9.52355 0.488724 9.46078 0.514723 9.4145 0.561001C9.36823 0.607279 9.34223 0.670045 9.34223 0.735492V2.22865L7.50113 0.7139C7.32444 0.568508 7.10274 0.489014 6.87392 0.489014C6.64511 0.489014 6.4234 0.568508 6.24672 0.7139L1.04134 5.00089C1.01635 5.02154 0.995677 5.04692 0.980499 5.07556C0.965321 5.10421 0.955936 5.13557 0.952881 5.16784C0.949825 5.20011 0.953159 5.23267 0.962691 5.26366C0.972224 5.29464 0.987768 5.32345 1.00844 5.34842L1.53282 5.98591C1.55343 6.01097 1.57878 6.03172 1.60743 6.04698C1.63607 6.06223 1.66744 6.07168 1.69974 6.07479C1.73204 6.07791 1.76463 6.07462 1.79566 6.06512C1.82669 6.05562 1.85554 6.04009 1.88056 6.01943L6.71764 2.03535C6.7622 1.99943 6.81771 1.97984 6.87495 1.97984C6.93219 1.97984 6.9877 1.99943 7.03227 2.03535L11.8696 6.01943C11.8945 6.0401 11.9233 6.05564 11.9543 6.06517C11.9853 6.07471 12.0179 6.07804 12.0501 6.07498C12.0824 6.07193 12.1138 6.06254 12.1424 6.04737C12.1711 6.03219 12.1964 6.01151 12.2171 5.98653L12.7415 5.34904C12.7621 5.32392 12.7776 5.29497 12.787 5.26385C12.7964 5.23273 12.7996 5.20005 12.7964 5.1677C12.7931 5.13534 12.7835 5.10395 12.7681 5.07533C12.7527 5.0467 12.7317 5.0214 12.7065 5.00089Z" fill="currentColor"></path>
  </symbol>
  <symbol xmlns="http://www.w3.org/2000/svg" viewBox="0 0 20 20" id="menu">
    <path d="M0 3h20v2H0V3zm0 6h20v2H0V9zm0 6h20v2H0v-2z" fill="currentColor"></path>
  </symbol>
  <symbol fill="none" xmlns="http://www.w3.org/2000/svg" viewBox="0 0 13 12" id="plane">
    <path d="M11.5243 0.0993558L1.22926 6.0369C0.827235 6.26783 0.878322 6.82739 1.27813 6.99614L3.63922 7.98647L10.0206 2.36424C10.1428 2.25543 10.316 2.42197 10.2116 2.54854L4.86086 9.06562V10.8531C4.86086 11.3771 5.49389 11.5836 5.80485 11.2039L7.21528 9.48751L9.98284 10.6466C10.2982 10.7798 10.6581 10.5822 10.7158 10.2425L12.3151 0.650033C12.3906 0.201498 11.9086 -0.122691 11.5243 0.0993558Z" fill="currentColor"></path>
  </symbol>
  <symbol fill="none" xmlns="http://www.w3.org/2000/svg" viewBox="0 0 12 13" id="plus">
    <path d="M6.11462 6.648H2.32425M6.11462 10.4384V6.648V10.4384ZM6.11462 6.648V2.85764V6.648ZM6.11462 6.648H9.90498H6.11462Z" stroke="white" stroke-opacity="0.67" stroke-width="0.947592" stroke-linecap="round"></path>
  </symbol>
  <symbol fill="none" xmlns="http://www.w3.org/2000/svg" viewBox="0 0 13 13" id="report">
    <path d="M11.9822 8.99957H2.78764V2.99815C2.78764 2.82364 2.63525 2.68229 2.4471 2.68229H1.76602C1.57787 2.68229 1.42548 2.82364 1.42548 2.99815V9.6313C1.42548 9.98013 1.73047 10.263 2.10656 10.263H11.9822C12.1704 10.263 12.3228 10.1217 12.3228 9.94716V9.31543C12.3228 9.14092 12.1704 8.99957 11.9822 8.99957ZM11.3012 3.31402H8.78839C8.33335 3.31402 8.1054 3.82433 8.42721 4.12283L9.1168 4.76245L7.55521 6.21108L5.99362 4.76265C5.72757 4.51588 5.29636 4.51588 5.03053 4.76265L3.56854 6.11869C3.43552 6.24208 3.43552 6.44206 3.56854 6.56544L4.04998 7.01199C4.18301 7.13538 4.39861 7.13538 4.53163 7.01199L5.51197 6.1025L7.07356 7.55094C7.33961 7.79771 7.77082 7.79771 8.03665 7.55094L10.0799 5.65575L10.7695 6.29538C11.0913 6.59387 11.6415 6.38244 11.6415 5.96036V3.62988C11.6417 3.45537 11.4893 3.31402 11.3012 3.31402Z" fill="currentColor"></path>
  </symbol>
  <symbol fill="none" xmlns="http://www.w3.org/2000/svg" viewBox="0 0 12 12" id="search">
    <path d="M11.5748 9.8894L9.36038 7.67498C9.26043 7.57503 9.12494 7.5195 8.98279 7.5195H8.62076C9.23378 6.73546 9.59803 5.7493 9.59803 4.67652C9.59803 2.1245 7.53021 0.0566711 4.97819 0.0566711C2.42616 0.0566711 0.358337 2.1245 0.358337 4.67652C0.358337 7.22854 2.42616 9.29637 4.97819 9.29637C6.05097 9.29637 7.03713 8.93211 7.82117 8.31909V8.68113C7.82117 8.82328 7.8767 8.95876 7.97665 9.05871L10.1911 11.2731C10.3998 11.4819 10.7374 11.4819 10.944 11.2731L11.5726 10.6446C11.7814 10.4358 11.7814 10.0982 11.5748 9.8894ZM4.97819 7.5195C3.40788 7.5195 2.1352 6.24905 2.1352 4.67652C2.1352 3.10622 3.40566 1.83354 4.97819 1.83354C6.54849 1.83354 7.82117 3.10399 7.82117 4.67652C7.82117 6.24682 6.55071 7.5195 4.97819 7.5195Z" fill="currentColor"></path>
  </symbol>
  <symbol fill="none" xmlns="http://www.w3.org/2000/svg" viewBox="0 0 13 12" id="user">
    <path d="M6.63739 5.75586C8.4319 5.75586 9.88628 4.48328 9.88628 2.91309C9.88628 1.3429 8.4319 0.0703125 6.63739 0.0703125C4.84289 0.0703125 3.38851 1.3429 3.38851 2.91309C3.38851 4.48328 4.84289 5.75586 6.63739 5.75586ZM8.91162 6.46656H8.48774C7.92426 6.69309 7.29732 6.82191 6.63739 6.82191C5.97746 6.82191 5.35307 6.69309 4.78705 6.46656H4.36317C2.47984 6.46656 0.951843 7.80355 0.951843 9.45147V10.3754C0.951843 10.9639 1.49755 11.4414 2.17018 11.4414H11.1046C11.7772 11.4414 12.3229 10.9639 12.3229 10.3754V9.45147C12.3229 7.80355 10.795 6.46656 8.91162 6.46656Z" fill="currentColor"></path>
  </symbol>
  <symbol fill="none" xmlns="http://www.w3.org/2000/svg" viewBox="0 0 13 12" id="wallet">
    <path d="M10.7679 3.56526H2.65449C2.46634 3.56526 2.31395 3.42139 2.31395 3.24376C2.31395 3.06613 2.46634 2.92225 2.65449 2.92225H10.8275C11.0156 2.92225 11.168 2.77838 11.168 2.60075C11.168 2.06805 10.7106 1.63623 10.1464 1.63623H2.31395C1.56156 1.63623 0.951782 2.21193 0.951782 2.92225V9.35234C0.951782 10.0627 1.56156 10.6384 2.31395 10.6384H10.7679C11.3642 10.6384 11.8491 10.2057 11.8491 9.67384V4.52977C11.8491 3.99789 11.3642 3.56526 10.7679 3.56526ZM9.80584 7.74482C9.42976 7.74482 9.12476 7.45687 9.12476 7.10181C9.12476 6.74675 9.42976 6.4588 9.80584 6.4588C10.1819 6.4588 10.4869 6.74675 10.4869 7.10181C10.4869 7.45687 10.1819 7.74482 9.80584 7.74482Z" fill="currentColor"></path>
  </symbol>
  <symbol fill="none" xmlns="http://www.w3.org/2000/svg" viewBox="0 0 13 13" id="wealth">
    <path d="M6.87413 1.59013C3.86503 1.59013 1.42548 3.75673 1.42548 6.42961C1.42548 7.58271 1.88116 8.64019 2.63908 9.47151C2.37175 10.6421 1.48294 11.6872 1.4723 11.6995C1.44938 11.7259 1.43405 11.7591 1.42819 11.7949C1.42234 11.8307 1.42622 11.8676 1.43936 11.901C1.45249 11.9345 1.47431 11.963 1.50211 11.983C1.52991 12.003 1.56246 12.0136 1.59575 12.0136C3.00601 12.0136 4.06445 11.2749 4.58825 10.8182C5.28402 11.1046 6.05662 11.2691 6.87413 11.2691C9.88323 11.2691 12.3228 9.1025 12.3228 6.42961C12.3228 3.75673 9.88323 1.59013 6.87413 1.59013ZM7.38494 8.62693V9.03549C7.38494 9.24117 7.23255 9.40776 7.0444 9.40776H6.70386C6.51571 9.40776 6.36332 9.24117 6.36332 9.03549V8.62297C6.12026 8.59156 5.88911 8.50222 5.68692 8.35633C5.55453 8.26071 5.54176 8.05131 5.65393 7.92869L6.02682 7.52106C6.10642 7.43404 6.22497 7.42241 6.32714 7.47383C6.39482 7.5078 6.46889 7.52548 6.54551 7.52548H7.24319C7.34237 7.52548 7.42283 7.43753 7.42283 7.32957C7.42283 7.24232 7.36919 7.16484 7.29257 7.14088L6.22689 6.80816C5.75332 6.66042 5.37532 6.23324 5.3136 5.69904C5.2274 4.95287 5.71863 4.31629 6.36332 4.23207V3.82374C6.36332 3.61806 6.51571 3.45147 6.70386 3.45147H7.0444C7.23255 3.45147 7.38494 3.61806 7.38494 3.82374V4.23626C7.628 4.26767 7.85914 4.35701 8.06134 4.50289C8.19373 4.59852 8.20649 4.80792 8.09433 4.93054L7.72144 5.33817C7.64184 5.42519 7.52329 5.43682 7.42112 5.3854C7.3526 5.35115 7.2781 5.33353 7.20275 5.33375H6.50507C6.40589 5.33375 6.32543 5.4217 6.32543 5.52965C6.32543 5.61691 6.37907 5.69438 6.45569 5.71835L7.52137 6.05106C7.99493 6.19904 8.37293 6.62598 8.43466 7.16019C8.52086 7.90612 8.02963 8.5427 7.38494 8.62693Z" fill="currentColor"></path>
  </symbol>
</svg>